<svg width="101" height="104" viewBox="0 0 101 104" fill="none" xmlns="http://www.w3.org/2000/svg">
<path d="M50.425 2.03264e-05C48.719 -0.00382367 47.0564 0.537638 45.6799 1.54539C44.3033 2.55315 43.2848 3.97445 42.7731 5.60189C42.2613 7.22933 42.283 8.97774 42.835 10.592C43.3871 12.2062 44.4405 13.6018 45.8417 14.575V20.9917C41.7167 21.5875 37.8667 22.9167 34.3834 24.9334L29.2959 17.6459C30.1667 15.2625 29.9375 12.5125 28.3792 10.3125C26.775 8.06669 24.3 6.87502 21.7792 6.87502C20.175 6.87502 18.5709 7.33335 17.1959 8.34169C13.575 10.8625 12.6584 15.8584 15.225 19.4792C16.7834 21.725 19.2584 22.9167 21.7792 22.9167L27.1875 30.6167C25.2167 32.5875 23.6584 34.7875 22.3292 37.2167C21.4125 36.85 20.45 36.6667 19.4875 36.6667C17.425 36.6667 15.3625 37.4459 13.7584 38.9584C10.6875 42.1667 10.6875 47.2084 13.7584 50.4167C15.0875 51.6542 16.6917 52.3417 18.3417 52.7084C18.3417 55.1834 18.6625 57.5667 19.1667 59.8584L13.1625 61.4625C11.7417 60.2709 9.90836 59.5834 8.02919 59.5834C7.34169 59.5834 6.60836 59.5834 5.92086 59.8584C4.90318 60.1344 3.94993 60.6085 3.11564 61.2533C2.28136 61.8982 1.58241 62.7012 1.05879 63.6165C0.535178 64.5317 0.197172 65.5413 0.0641142 66.5873C-0.0689435 67.6333 0.00555881 68.6953 0.283359 69.7125C1.24586 73.3334 4.59169 75.625 8.02919 75.625C8.71669 75.625 9.40419 75.625 10.1375 75.35C12.75 74.6167 14.7209 72.6917 15.5459 70.3084L22.4667 68.4292C24.5292 72.05 27.2792 75.2584 30.4875 77.9167L25.4459 87.0834C22.925 87.45 20.6334 88.8709 19.3042 91.3C18.8046 92.2269 18.4925 93.2432 18.3857 94.2907C18.2789 95.3382 18.3794 96.3966 18.6816 97.4052C18.9838 98.4139 19.4817 99.3532 20.1468 100.169C20.812 100.986 21.6314 101.663 22.5584 102.163C23.4853 102.662 24.5015 102.974 25.549 103.081C26.5966 103.188 27.6549 103.087 28.6636 102.785C29.6722 102.483 30.6115 101.985 31.4278 101.32C32.244 100.655 32.9213 99.8353 33.4209 98.9084C34.7042 96.525 34.6584 93.775 33.5125 91.5292L38.4167 82.5C42.1292 83.9667 46.1625 84.7917 50.425 84.7917H51.25C50.6542 85.9834 50.425 87.3584 50.425 88.825C50.7917 93.0417 54.275 96.25 58.4459 96.25H59.0417C63.4875 95.8834 66.7875 92.0334 66.4667 87.6334C66.2834 85.3417 65.1375 83.325 63.4875 81.9958C65.6417 81.0333 67.7042 79.7959 69.6292 78.375L80.3542 89.1C79.8959 91.6667 80.6292 94.2792 82.5084 96.25C84.1125 97.7625 86.175 98.5417 88.2375 98.5417C90.3 98.5417 92.3625 97.7625 93.9667 96.25C97.0375 93.0417 97.0375 88 93.9667 84.7917C92.3625 83.2792 90.3 82.5 88.2375 82.5C87.7792 82.5 87.3209 82.5 86.8167 82.6375L76.0917 71.9125C78.3375 68.9334 80.0792 65.5417 81.1792 61.875H86.2667C87.24 63.2762 88.6355 64.3297 90.2498 64.8817C91.864 65.4337 93.6124 65.4554 95.2398 64.9437C96.8673 64.4319 98.2886 63.4134 99.2963 62.0368C100.304 60.6603 100.846 58.9977 100.842 57.2917C100.846 55.5857 100.304 53.9231 99.2963 52.5465C98.2886 51.17 96.8673 50.1515 95.2398 49.6397C93.6124 49.1279 91.864 49.1497 90.2498 49.7017C88.6355 50.2537 87.24 51.3072 86.2667 52.7084H82.5084C82.5084 45.5125 80.2167 38.9584 76.0917 33.5042L82.2334 27.3625C82.7375 27.5 83.1959 27.5 83.6542 27.5C85.7167 27.5 87.7792 26.7209 89.3834 25.2084C92.4542 22.0459 92.4542 16.9584 89.3834 13.75C87.7792 12.2375 85.7167 11.4584 83.6542 11.4584C81.5917 11.4584 79.5292 12.2375 77.925 13.75C76.0459 15.7209 75.3125 18.3334 75.7709 20.9L69.6292 27.0417C65.4125 23.8792 60.4625 21.7709 55.0084 20.9917V14.575C56.4095 13.6018 57.463 12.2062 58.015 10.592C58.5671 8.97774 58.5888 7.22933 58.077 5.60189C57.5652 3.97445 56.5468 2.55315 55.1702 1.54539C53.7936 0.537638 52.131 -0.00382367 50.425 2.03264e-05ZM50.425 75.625C37.775 75.625 27.5084 65.3584 27.5084 52.7084C27.5084 40.0584 37.775 29.7917 50.425 29.7917C63.075 29.7917 73.3417 40.0584 73.3417 52.7084C73.3417 65.3584 63.075 75.625 50.425 75.625ZM43.55 38.9584C39.7459 38.9584 36.675 42.0292 36.675 45.8334C36.675 49.6375 39.7459 52.7084 43.55 52.7084C47.3542 52.7084 50.425 49.6375 50.425 45.8334C50.425 42.0292 47.3542 38.9584 43.55 38.9584ZM59.5917 57.2917C57.0709 57.2917 55.0084 59.3542 55.0084 61.875C55.0084 64.3959 57.0709 66.4584 59.5917 66.4584C62.1125 66.4584 64.175 64.3959 64.175 61.875C64.175 59.3542 62.1125 57.2917 59.5917 57.2917Z" fill="#006A76"/>
</svg>
